<?xml version="1.0" encoding="iso-8859-1"?>
<!-- Generator: Adobe Illustrator 17.1.0, SVG Export Plug-In . SVG Version: 6.00 Build 0)  -->
<!DOCTYPE svg PUBLIC "-//W3C//DTD SVG 1.1//EN" "http://www.w3.org/Graphics/SVG/1.1/DTD/svg11.dtd">
<svg fill="#FFFFFF" version="1.1" id="Capa_1" xmlns="http://www.w3.org/2000/svg" xmlns:xlink="http://www.w3.org/1999/xlink" x="0px" y="0px"
	 viewBox="0 0 193.309 193.309" style="enable-background:new 0 0 193.309 193.309;" xml:space="preserve">
<path d="M180.915,158.029v30.279c0,2.761-2.239,5-5,5H17.394c-2.761,0-5-2.239-5-5v-30.279c0-12.668,7.582-23.897,19.326-28.631
	l34.086-14.971c1.268-0.557,2.709-0.563,3.98-0.018c1.272,0.545,2.261,1.594,2.732,2.895l9.935,27.467l4.236-7.162l-2.779-7.659
	c-0.556-1.533-0.33-3.24,0.606-4.576c0.936-1.335,2.464-2.13,4.094-2.13h16.09c1.63,0,3.159,0.795,4.094,2.13
	c0.936,1.335,1.162,3.042,0.606,4.575l-2.78,7.659l4.236,7.162l9.935-27.467c0.471-1.301,1.46-2.35,2.732-2.895
	c1.271-0.545,2.713-0.539,3.98,0.018l34.086,14.971C173.332,134.133,180.915,145.362,180.915,158.029z M166.452,0H26.856
	c-2.761,0-5,2.239-5,5c0,2.606,2.002,4.722,4.547,4.954v37.497c-1.818,1.498-2.985,3.789-2.985,6.356
	c0,4.502,3.582,8.165,7.985,8.165c4.403,0,7.984-3.663,7.984-8.165c0-2.567-1.167-4.858-2.984-6.356V10h14.978v20.006h90.546V10
	h24.525c2.761,0,5-2.239,5-5C171.452,2.239,169.213,0,166.452,0z M141.442,60.049c-1.015-1.566-2.214-2.672-3.362-3.451
	c-0.022-1.97-0.162-4.631-0.603-7.674c0.131-1.635,0.362-5.948-0.206-11.169H96.654H56.037c-0.568,5.221-0.337,9.533-0.206,11.169
	c-0.44,3.043-0.581,5.704-0.603,7.674c-1.148,0.779-2.347,1.885-3.362,3.451c-2.463,3.802-2.894,8.859-1.28,15.031
	c2.928,11.196,9.697,13.951,13.586,14.583c2.331,4.623,7.187,13.537,12.07,18.095c2.033,1.898,4.666,3.495,7.825,4.749
	c4.011,1.592,8.246,2.398,12.587,2.398s8.576-0.807,12.587-2.398c3.159-1.254,5.792-2.852,7.825-4.749
	c4.884-4.558,9.74-13.472,12.07-18.095c3.889-0.632,10.658-3.388,13.586-14.583C144.336,68.908,143.906,63.851,141.442,60.049z"/>
<g>
</g>
<g>
</g>
<g>
</g>
<g>
</g>
<g>
</g>
<g>
</g>
<g>
</g>
<g>
</g>
<g>
</g>
<g>
</g>
<g>
</g>
<g>
</g>
<g>
</g>
<g>
</g>
<g>
</g>
</svg>
