<?xml version="1.0" encoding="iso-8859-1"?>
<!-- Generator: Adobe Illustrator 19.0.0, SVG Export Plug-In . SVG Version: 6.00 Build 0)  -->
<svg version="1.1" id="Layer_1" xmlns="http://www.w3.org/2000/svg" xmlns:xlink="http://www.w3.org/1999/xlink" x="0px" y="0px"
	 viewBox="0 0 455 455" style="enable-background:new 0 0 455 455;" xml:space="preserve">
<g>
	<path d="M167.902,112.277h10l71.584,0c13.807,0,25-11.193,25-25c0-13.807-11.193-25-25-25c0,0-27.048,0-73.844,0
		c-47.213,0-96.608,24.17-96.608,24.17l-0.175,114.889C127.959,201.328,167.902,161.379,167.902,112.277z"/>
	<path d="M430,202.277H274.487v-20.37l0.451,0.37h127.868c13.807,0,25-11.193,25-25s-11.193-25-25-25H196.214
		c-9.53,56.099-58.43,98.964-117.179,99.056v136.773c0,0,49.395,24.616,96.608,24.616H372.81c13.93,0,25.223-11.293,25.223-25.223
		s-11.292-25.223-25.223-25.223h-98.323v-20h128.319c13.807,0,25-11.193,25-25s-11.193-25-25-25H274.487v-20H430
		c13.807,0,25-11.193,25-25S443.807,202.277,430,202.277z"/>
	<rect y="71.447" width="50" height="311.66"/>
</g>
<g>
</g>
<g>
</g>
<g>
</g>
<g>
</g>
<g>
</g>
<g>
</g>
<g>
</g>
<g>
</g>
<g>
</g>
<g>
</g>
<g>
</g>
<g>
</g>
<g>
</g>
<g>
</g>
<g>
</g>
</svg>
