<?xml version="1.0" encoding="utf-8"?>

<svg fill="#FFFFFF" version="1.1" id="Icons" xmlns="http://www.w3.org/2000/svg" xmlns:xlink="http://www.w3.org/1999/xlink" x="0px" y="0px"
	 viewBox="0 0 32 32" style="enable-background:new 0 0 32 32;" xml:space="preserve">
<style type="text/css">
	.st0{fill:none;stroke:#000000;stroke-width:2;stroke-linecap:round;stroke-linejoin:round;stroke-miterlimit:10;}
</style>
<g>
	<path d="M6,19c0.6,0,1-0.4,1-1V8h18v10c0,0.6,0.4,1,1,1s1-0.4,1-1V7c0-0.6-0.4-1-1-1H6C5.4,6,5,6.4,5,7v11C5,18.6,5.4,19,6,19z"/>
	<path d="M29.9,24.6l-2-4C27.7,20.2,27.4,20,27,20H5c-0.4,0-0.7,0.2-0.9,0.6l-2,4c-0.2,0.3-0.1,0.7,0,1S2.7,26,3,26h26
		c0.3,0,0.7-0.2,0.9-0.5S30,24.9,29.9,24.6z"/>
	<path d="M16,18c0.6,0,1-0.4,1-1v-2h2c0.6,0,1-0.4,1-1s-0.4-1-1-1h-2v-2c0-0.6-0.4-1-1-1s-1,0.4-1,1v2h-2c-0.6,0-1,0.4-1,1
		s0.4,1,1,1h2v2C15,17.6,15.4,18,16,18z"/>
</g>
</svg>
