<?xml version="1.0" encoding="iso-8859-1"?>
<!-- Generator: Adobe Illustrator 19.1.0, SVG Export Plug-In . SVG Version: 6.00 Build 0)  -->
<svg version="1.1" id="Capa_1" xmlns="http://www.w3.org/2000/svg" xmlns:xlink="http://www.w3.org/1999/xlink" x="0px" y="0px"
	 viewBox="0 0 489.4 489.4" style="enable-background:new 0 0 489.4 489.4;" xml:space="preserve">
<g>
	<g>
		<g>
			<path d="M419.999,325.8c-48.1-39.5-100-65.8-110.6-70.9c-1.2-0.6-1.9-1.8-1.9-3.1v-74.9c9.4-6.3,15.6-17,15.6-29.1V70
				c0-38.6-31.3-70-70-70h-8.3h-8.4c-38.6,0-70,31.3-70,70v77.7c0,12.2,6.2,22.9,15.6,29.1v74.9c0,1.3-0.8,2.5-1.9,3.1
				c-10.6,5.2-62.4,31.4-110.6,70.9c-8.7,7.1-13.7,17.8-13.7,29.1V408h85l0,0c0-27.8,10.8-53.9,30.4-73.5
				c19.6-19.6,45.7-30.4,73.5-30.4s53.9,10.8,73.5,30.4c19.6,19.6,30.4,45.7,30.4,73.5l0,0h85v-53.2
				C433.699,343.6,428.699,332.9,419.999,325.8z"/>
		</g>
		<g>
			<path d="M244.799,326.8c-44.9,0-81.3,36.4-81.3,81.3s36.4,81.3,81.3,81.3s81.3-36.4,81.3-81.3
				C326.099,363.2,289.699,326.8,244.799,326.8z M292.299,419.9h-35.7v35.8h-23.7V420h-35.7v-23.7h35.7v-35.7h23.7v35.7h35.7V419.9z
				"/>
		</g>
	</g>
</g>
<g>
</g>
<g>
</g>
<g>
</g>
<g>
</g>
<g>
</g>
<g>
</g>
<g>
</g>
<g>
</g>
<g>
</g>
<g>
</g>
<g>
</g>
<g>
</g>
<g>
</g>
<g>
</g>
<g>
</g>
</svg>
